<mxfile host="app.diagrams.net" modified="2024-01-23T17:34:06.926Z" agent="Mozilla/5.0 (Macintosh; Intel Mac OS X 10_15_7) AppleWebKit/605.1.15 (KHTML, like Gecko) Version/17.2.1 Safari/605.1.15" etag="SVmnr4wtpPf1fdvrBDbd" version="22.1.21" type="device">
  <diagram name="Page-1" id="CCBjy3AzmK0jJebju-N7">
    <mxGraphModel dx="1530" dy="887" grid="1" gridSize="10" guides="1" tooltips="1" connect="1" arrows="1" fold="1" page="1" pageScale="1" pageWidth="827" pageHeight="1169" math="0" shadow="0">
      <root>
        <mxCell id="0" />
        <mxCell id="1" parent="0" />
        <mxCell id="vlEXJZh1OxGFPQmwX6iM-1" value="Директор" style="ellipse;whiteSpace=wrap;html=1;fillColor=#ffe6cc;strokeColor=#d79b00;" vertex="1" parent="1">
          <mxGeometry x="350" y="410" width="120" height="80" as="geometry" />
        </mxCell>
        <mxCell id="vlEXJZh1OxGFPQmwX6iM-2" value="Контроль&lt;br&gt;сотрудников" style="ellipse;whiteSpace=wrap;html=1;" vertex="1" parent="1">
          <mxGeometry x="220" y="400" width="120" height="80" as="geometry" />
        </mxCell>
        <mxCell id="vlEXJZh1OxGFPQmwX6iM-3" value="Товар" style="ellipse;whiteSpace=wrap;html=1;fillColor=#ffe6cc;strokeColor=#d79b00;" vertex="1" parent="1">
          <mxGeometry x="480" y="350" width="120" height="80" as="geometry" />
        </mxCell>
        <mxCell id="vlEXJZh1OxGFPQmwX6iM-4" value="Клиент" style="ellipse;whiteSpace=wrap;html=1;fillColor=#ffe6cc;strokeColor=#d79b00;" vertex="1" parent="1">
          <mxGeometry x="600" y="420" width="120" height="80" as="geometry" />
        </mxCell>
        <mxCell id="vlEXJZh1OxGFPQmwX6iM-5" value="Поставщик" style="ellipse;whiteSpace=wrap;html=1;fillColor=#ffe6cc;strokeColor=#d79b00;" vertex="1" parent="1">
          <mxGeometry x="540" y="510" width="120" height="80" as="geometry" />
        </mxCell>
        <mxCell id="vlEXJZh1OxGFPQmwX6iM-6" value="Кладовщик" style="ellipse;whiteSpace=wrap;html=1;fillColor=#ffe6cc;strokeColor=#d79b00;" vertex="1" parent="1">
          <mxGeometry x="390" y="510" width="120" height="80" as="geometry" />
        </mxCell>
        <mxCell id="vlEXJZh1OxGFPQmwX6iM-7" value="Просмотр &lt;br&gt;отчётности" style="ellipse;whiteSpace=wrap;html=1;" vertex="1" parent="1">
          <mxGeometry x="294" y="330" width="120" height="80" as="geometry" />
        </mxCell>
        <mxCell id="vlEXJZh1OxGFPQmwX6iM-8" value="Приём" style="ellipse;whiteSpace=wrap;html=1;" vertex="1" parent="1">
          <mxGeometry x="400" y="280" width="120" height="80" as="geometry" />
        </mxCell>
        <mxCell id="vlEXJZh1OxGFPQmwX6iM-9" value="Отправка" style="ellipse;whiteSpace=wrap;html=1;" vertex="1" parent="1">
          <mxGeometry x="510" y="240" width="120" height="80" as="geometry" />
        </mxCell>
        <mxCell id="vlEXJZh1OxGFPQmwX6iM-10" value="Складирование" style="ellipse;whiteSpace=wrap;html=1;" vertex="1" parent="1">
          <mxGeometry x="270" y="580" width="120" height="80" as="geometry" />
        </mxCell>
        <mxCell id="vlEXJZh1OxGFPQmwX6iM-11" value="Складирование" style="ellipse;whiteSpace=wrap;html=1;" vertex="1" parent="1">
          <mxGeometry x="590" y="310" width="120" height="80" as="geometry" />
        </mxCell>
        <mxCell id="vlEXJZh1OxGFPQmwX6iM-12" value="Оставить&lt;br&gt;заказ" style="ellipse;whiteSpace=wrap;html=1;" vertex="1" parent="1">
          <mxGeometry x="693" y="363" width="120" height="80" as="geometry" />
        </mxCell>
        <mxCell id="vlEXJZh1OxGFPQmwX6iM-13" value="Уточнить&lt;br&gt;данные" style="ellipse;whiteSpace=wrap;html=1;" vertex="1" parent="1">
          <mxGeometry x="704" y="474" width="120" height="80" as="geometry" />
        </mxCell>
        <mxCell id="vlEXJZh1OxGFPQmwX6iM-14" value="Поставка&lt;br&gt;заказов" style="ellipse;whiteSpace=wrap;html=1;" vertex="1" parent="1">
          <mxGeometry x="650" y="560" width="120" height="80" as="geometry" />
        </mxCell>
        <mxCell id="vlEXJZh1OxGFPQmwX6iM-15" value="Приём&lt;br&gt;заказов" style="ellipse;whiteSpace=wrap;html=1;" vertex="1" parent="1">
          <mxGeometry x="530" y="600" width="120" height="80" as="geometry" />
        </mxCell>
        <mxCell id="vlEXJZh1OxGFPQmwX6iM-16" value="Приём поставок" style="ellipse;whiteSpace=wrap;html=1;" vertex="1" parent="1">
          <mxGeometry x="400" y="600" width="120" height="80" as="geometry" />
        </mxCell>
        <mxCell id="vlEXJZh1OxGFPQmwX6iM-17" value="Сборка&lt;br&gt;и отгрузка" style="ellipse;whiteSpace=wrap;html=1;" vertex="1" parent="1">
          <mxGeometry x="260" y="490" width="120" height="80" as="geometry" />
        </mxCell>
      </root>
    </mxGraphModel>
  </diagram>
</mxfile>
